<?xml version="1.0" encoding="UTF-8"?>
<!DOCTYPE svg PUBLIC "-//W3C//DTD SVG 1.1//EN" "http://www.w3.org/Graphics/SVG/1.1/DTD/svg11.dtd">
<!-- Creator: CorelDRAW -->
<svg xmlns="http://www.w3.org/2000/svg" xml:space="preserve" width="2.33333in" height="2.33333in" version="1.1" shape-rendering="geometricPrecision" text-rendering="geometricPrecision" image-rendering="optimizeQuality" fill-rule="evenodd" clip-rule="evenodd"
viewBox="0 0 1006.77 1006.77"
 xmlns:xlink="http://www.w3.org/1999/xlink"
 xmlns:xodm="http://www.corel.com/coreldraw/odm/2003">
 <defs>
   <clipPath id="id0">
    <path d="M-0 0l1006.77 0 0 1006.77 -1006.77 0 0 -1006.77z"/>
   </clipPath>
 </defs>
 <g id="logo">
  <metadata id="CorelCorpID_0Corel-Layer"/>
  <g>
  </g>
  <g clip-path="url(#id0)">
   <g id="_2271048772128">
    <g id="icone">
     <path id="braços" fill="red" fill-rule="nonzero" d="M287.12 68.18c-7.21,0 -13.07,5.87 -13.07,13.07 0,7.21 5.87,13.07 13.07,13.07 7.21,0 13.08,-5.87 13.08,-13.07 0,-7.21 -5.87,-13.07 -13.08,-13.07zm207.78 0c-7.21,0 -13.07,5.87 -13.07,13.07 0,7.21 5.86,13.07 13.07,13.07 7.21,0 13.07,-5.87 13.07,-13.07 0,-7.21 -5.87,-13.07 -13.07,-13.07zm0 69.48c-31.1,0 -56.41,-25.3 -56.41,-56.41 0,-31.11 25.31,-56.4 56.41,-56.4 23.43,0 43.57,14.36 52.08,34.74l125.88 0 0 425.37c0,156.64 -127.43,284.08 -284.08,284.08 -156.64,0 -284.08,-127.44 -284.08,-284.08l0 -425.37 130.33 0c8.51,-20.38 28.65,-34.74 52.08,-34.74 31.1,0 56.4,25.3 56.4,56.4 0,31.11 -25.3,56.41 -56.4,56.41 -23.43,0 -43.57,-14.36 -52.08,-34.74l-87 0 0 378.11 481.5 0 0 -378.11 -82.56 0c-8.51,20.38 -28.65,34.74 -52.08,34.74zm-343.62 386.7c18.86,114.07 118.17,201.35 237.51,201.35 119.33,0 218.65,-87.28 237.51,-201.35l-475.01 0z"/>
     <path id="circulo" fill="red" fill-rule="nonzero" d="M388.79 620.05c-7.21,0 -13.07,5.87 -13.07,13.07 0,7.21 5.86,13.08 13.07,13.08 7.21,0 13.07,-5.86 13.07,-13.08 0,-7.21 -5.87,-13.07 -13.07,-13.07zm0 69.48c-31.1,0 -56.41,-25.3 -56.41,-56.41 0,-31.1 25.31,-56.4 56.41,-56.4 31.1,0 56.4,25.3 56.4,56.4 0,31.1 -25.3,56.41 -56.4,56.41z"/>
     <path id="perna" fill="red" fill-rule="nonzero" d="M827.31 663.55c-20.11,0 -36.47,16.36 -36.47,36.47 0,20.1 16.36,36.47 36.47,36.47 20.11,0 36.46,-16.36 36.46,-36.47 0,-20.11 -16.36,-36.47 -36.46,-36.47zm-218.93 324.43c-132.67,0 -240.6,-107.93 -240.6,-240.6l43.33 0c0,108.77 88.5,197.27 197.27,197.27 98.98,0 181.17,-73.29 195.15,-168.45 -32.43,-10.14 -56.02,-40.46 -56.02,-76.18 0,-44 35.79,-79.8 79.8,-79.8 44,0 79.8,35.8 79.8,79.8 0,37.17 -25.55,68.48 -60,77.31 -14.79,118.59 -116.21,210.65 -238.73,210.65z"/>
    </g>
   </g>
  </g>
  <polygon fill="none" points="-0,0 1006.77,0 1006.77,1006.77 -0,1006.77 "/>
 </g>
</svg>
