<?xml version="1.0" encoding="UTF-8"?>
<!DOCTYPE svg PUBLIC "-//W3C//DTD SVG 1.1//EN" "http://www.w3.org/Graphics/SVG/1.1/DTD/svg11.dtd">
<!-- Creator: CorelDRAW -->
<svg xmlns="http://www.w3.org/2000/svg" xml:space="preserve" width="4.99999in" height="1.99999in" version="1.1" shape-rendering="geometricPrecision" text-rendering="geometricPrecision" image-rendering="optimizeQuality" fill-rule="evenodd" clip-rule="evenodd"
viewBox="0 0 4999.99 1999.99"
 xmlns:xlink="http://www.w3.org/1999/xlink"
 xmlns:xodm="http://www.corel.com/coreldraw/odm/2003">
 <g id="logo">
  <metadata id="CorelCorpID_0Corel-Layer"/>
  <g id="logo-dds">
   <g id="icone">
    <path id="braços" fill="red" fill-rule="nonzero" d="M381.67 172c-13.62,0 -24.7,11.08 -24.7,24.7 0,13.62 11.08,24.7 24.7,24.7 13.62,0 24.7,-11.08 24.7,-24.7 0,-13.62 -11.08,-24.7 -24.7,-24.7zm392.59 0c-13.62,0 -24.7,11.08 -24.7,24.7 0,13.62 11.08,24.7 24.7,24.7 13.62,0 24.7,-11.08 24.7,-24.7 0,-13.62 -11.08,-24.7 -24.7,-24.7zm0 131.28c-58.76,0 -106.57,-47.81 -106.57,-106.57 0,-58.77 47.82,-106.57 106.57,-106.57 44.27,0 82.32,27.13 98.4,65.64l237.85 0 0 803.7c0,295.96 -240.78,536.73 -536.74,536.73 -295.96,0 -536.74,-240.78 -536.74,-536.73l0 -803.7 246.25 0c16.08,-38.51 54.13,-65.64 98.4,-65.64 58.76,0 106.57,47.8 106.57,106.57 0,58.77 -47.81,106.57 -106.57,106.57 -44.27,0 -82.31,-27.13 -98.39,-65.64l-164.38 0 0 714.4 909.74 0 0 -714.4 -155.98 0c-16.08,38.5 -54.13,65.64 -98.39,65.64zm-649.23 730.63c35.63,215.52 223.27,380.43 448.74,380.43 225.46,0 413.11,-164.91 448.74,-380.43l-897.48 0z"/>
    <path id="circulo" fill="red" fill-rule="nonzero" d="M573.76 1214.7c-13.62,0 -24.7,11.08 -24.7,24.7 0,13.63 11.08,24.71 24.7,24.71 13.62,0 24.7,-11.08 24.7,-24.71 0,-13.62 -11.08,-24.7 -24.7,-24.7zm0 131.28c-58.76,0 -106.57,-47.81 -106.57,-106.57 0,-58.76 47.82,-106.56 106.57,-106.56 58.76,0 106.57,47.8 106.57,106.56 0,58.77 -47.81,106.57 -106.57,106.57z"/>
    <path id="perna" fill="red" fill-rule="nonzero" d="M1402.3 1296.88c-37.99,0 -68.91,30.92 -68.91,68.91 0,37.98 30.91,68.9 68.91,68.9 37.99,0 68.89,-30.91 68.89,-68.9 0,-37.99 -30.91,-68.91 -68.89,-68.91zm-413.65 612.97c-250.66,0 -454.58,-203.92 -454.58,-454.58l81.86 0c0,205.51 167.2,372.71 372.72,372.71 187.02,0 342.3,-138.47 368.72,-318.27 -61.27,-19.16 -105.85,-76.44 -105.85,-143.93 0,-83.14 67.63,-150.77 150.77,-150.77 83.13,0 150.77,67.63 150.77,150.77 0,70.22 -48.26,129.38 -113.35,146.06 -27.94,224.06 -219.56,398 -451.06,398z"/>
   </g>
   <g id="texto">
    <g id="doutor">
     <path id="d" fill="white" fill-rule="nonzero" d="M2040.75 766.46c0,-62.73 -43.01,-106.74 -106.74,-106.74l-60.21 0 0 213.48 60.21 0c63.73,0 106.74,-43 106.74,-105.73l0 -1.01zm-106.74 177.07l-138.11 0 0 -354.14 138.11 0c111.3,0 188.19,76.4 188.19,176.06l0 1.01c0,99.66 -76.89,177.07 -188.19,177.07z"/>
     <path id="o" fill="white" fill-rule="nonzero" d="M2460.68 766.46c0,-60.7 -44.52,-111.3 -107.26,-111.3 -62.72,0 -106.24,49.57 -106.24,110.29l0 1.01c0,60.7 44.52,111.3 107.26,111.3 62.74,0 106.24,-49.57 106.24,-110.29l0 -1.01zm-107.26 183.14c-109.26,0 -187.69,-81.45 -187.69,-182.13l0 -1.01c0,-100.67 79.43,-183.13 188.7,-183.13 109.28,0 187.69,81.44 187.69,182.12l0 1.01c0,100.67 -79.43,183.14 -188.71,183.14z"/>
     <path id="u" fill="white" fill-rule="nonzero" d="M2749.07 949.09c-95.11,0 -153.29,-53.12 -153.29,-157.33l0 -202.36 77.91 0 0 200.33c0,57.67 28.85,87.52 76.4,87.52 47.55,0 76.39,-28.83 76.39,-84.98l0 -202.87 77.91 0 0 199.83c0,107.26 -60.2,159.87 -155.32,159.87z"/>
     <polygon id="t" fill="white" fill-rule="nonzero" points="3134.08,661.23 3134.08,943.52 3056.18,943.52 3056.18,661.23 2948.42,661.23 2948.42,589.39 3241.85,589.39 3241.85,661.23 "/>
     <path id="o_0" fill="white" fill-rule="nonzero" d="M3555.53 766.46c0,-60.7 -44.52,-111.3 -107.26,-111.3 -62.73,0 -106.24,49.57 -106.24,110.29l0 1.01c0,60.7 44.51,111.3 107.25,111.3 62.74,0 106.24,-49.57 106.24,-110.29l0 -1.01zm-107.26 183.14c-109.26,0 -187.69,-81.45 -187.69,-182.13l0 -1.01c0,-100.67 79.43,-183.13 188.7,-183.13 109.29,0 187.69,81.44 187.69,182.12l0 1.01c0,100.67 -79.43,183.14 -188.7,183.14z"/>
     <path id="r" fill="white" fill-rule="nonzero" d="M3912.73 710.3c0,-33.39 -23.26,-50.6 -61.22,-50.6l-77.4 0 0 101.7 78.92 0c37.94,0 59.7,-20.24 59.7,-50.09l0 -1.01zm-1.52 233.22l-75.9 -113.31 -61.2 0 0 113.31 -77.89 0 0 -354.13 161.88 0c83.48,0 133.56,44.02 133.56,116.86l0 1.01c0,57.17 -30.85,93.09 -75.88,109.78l86.51 126.48 -91.06 0z"/>
    </g>
    <g id="do">
     <path id="d_1" fill="white" fill-rule="nonzero" d="M4438.4 766.46c0,-62.73 -43.01,-106.74 -106.75,-106.74l-60.21 0 0 213.48 60.21 0c63.74,0 106.75,-43 106.75,-105.73l0 -1.01zm-106.75 177.07l-138.1 0 0 -354.14 138.1 0c111.31,0 188.2,76.4 188.2,176.06l0 1.01c0,99.66 -76.89,177.07 -188.2,177.07z"/>
     <path id="o_2" fill="white" fill-rule="nonzero" d="M4858.33 766.46c0,-60.7 -44.52,-111.3 -107.26,-111.3 -62.74,0 -106.24,49.57 -106.24,110.29l0 1.01c0,60.7 44.52,111.3 107.26,111.3 62.74,0 106.24,-49.57 106.24,-110.29l0 -1.01zm-107.26 183.14c-109.27,0 -187.69,-81.45 -187.69,-182.13l0 -1.01c0,-100.67 79.43,-183.13 188.71,-183.13 109.28,0 187.69,81.44 187.69,182.12l0 1.01c0,100.67 -79.42,183.14 -188.7,183.14z"/>
    </g>
    <g id="smartphone">
     <path id="s" fill="white" fill-rule="nonzero" d="M1902.38 1415.77c-47.43,0 -95.3,-16.56 -132.88,-50.11l40.72 -48.75c28.18,23.26 57.71,38.02 93.5,38.02 28.19,0 45.19,-11.19 45.19,-29.53l0 -0.89c0,-17.44 -10.74,-26.39 -63.09,-39.81 -63.08,-16.11 -103.79,-33.56 -103.79,-95.74l0 -0.89c0,-56.81 45.64,-94.4 109.61,-94.4 45.64,0 84.56,14.31 116.32,39.81l-35.79 51.9c-27.73,-19.24 -55.03,-30.87 -81.43,-30.87 -26.39,0 -40.26,12.08 -40.26,27.29l0 0.89c0,20.58 13.42,27.3 67.55,41.16 63.53,16.55 99.32,39.37 99.32,93.96l0 0.89c0,62.18 -47.42,97.07 -114.97,97.07z"/>
     <polygon id="m" fill="white" fill-rule="nonzero" points="2313.07,1411.3 2313.07,1206.85 2224.94,1340.61 2223.15,1340.61 2135.91,1208.19 2135.91,1411.3 2068.36,1411.3 2068.36,1098.14 2142.63,1098.14 2224.94,1230.56 2307.26,1098.14 2381.53,1098.14 2381.53,1411.3 "/>
     <path id="a" fill="white" fill-rule="nonzero" d="M2585.98 1178.66l-41.6 101.56 83.21 0 -41.61 -101.56zm94.85 232.64l-28.63 -70.24 -132.43 0 -28.64 70.24 -70.24 0 134.22 -315.41 63.53 0 134.22 315.41 -72.04 0z"/>
     <path id="r_3" fill="white" fill-rule="nonzero" d="M2983.72 1205.06c0,-29.53 -20.58,-44.74 -54.14,-44.74l-68.44 0 0 89.93 69.79 0c33.54,0 52.79,-17.91 52.79,-44.3l0 -0.89zm-1.35 206.25l-67.1 -100.22 -54.13 0 0 100.22 -68.91 0 0 -313.17 143.17 0c73.81,0 118.11,38.92 118.11,103.35l0 0.89c0,50.56 -27.3,82.32 -67.1,97.09l76.5 111.84 -80.54 0z"/>
     <polygon id="t_4" fill="white" fill-rule="nonzero" points="3248.56,1161.67 3248.56,1411.3 3179.67,1411.3 3179.67,1161.67 3084.38,1161.67 3084.38,1098.13 3343.85,1098.13 3343.85,1161.67 "/>
     <path id="p" fill="white" fill-rule="nonzero" d="M3565.78 1207.74c0,-30.87 -21.48,-47.43 -55.94,-47.43l-53.24 0 0 95.74 54.59 0c34.44,0 54.58,-20.57 54.58,-47.43l0 -0.89zm-56.82 109.61l-52.35 0 0 93.95 -68.89 0 0 -313.17 127.94 0c74.72,0 119.9,44.29 119.9,108.27l0 0.89c0,72.47 -56.37,110.06 -126.61,110.06z"/>
     <polygon id="h" fill="white" fill-rule="nonzero" points="3873.58,1411.3 3873.58,1285.59 3746.52,1285.59 3746.52,1411.3 3677.63,1411.3 3677.63,1098.14 3746.52,1098.14 3746.52,1222.06 3873.58,1222.06 3873.58,1098.14 3942.47,1098.14 3942.47,1411.3 "/>
     <path id="o_5" fill="white" fill-rule="nonzero" d="M4255.64 1254.71c0,-53.68 -39.38,-98.41 -94.84,-98.41 -55.48,0 -93.94,43.84 -93.94,97.52l0 0.89c0,53.69 39.36,98.43 94.83,98.43 55.49,0 93.95,-43.84 93.95,-97.54l0 -0.89zm-94.84 161.95c-96.63,0 -165.99,-72.02 -165.99,-161.06l0 -0.89c0,-89.02 70.26,-161.95 166.88,-161.95 96.64,0 165.99,72.04 165.99,161.06l0 0.89c0,89.04 -70.25,161.95 -166.88,161.95z"/>
     <polygon id="n" fill="white" fill-rule="nonzero" points="4599.69,1411.3 4448.02,1212.22 4448.02,1411.3 4380.03,1411.3 4380.03,1098.14 4443.55,1098.14 4590.29,1290.95 4590.29,1098.14 4658.28,1098.14 4658.28,1411.3 "/>
     <polygon id="e" fill="white" fill-rule="nonzero" points="4724.52,1411.3 4724.52,1098.14 4960.73,1098.14 4960.73,1159.43 4792.97,1159.43 4792.97,1222.94 4940.59,1222.94 4940.59,1284.24 4792.97,1284.24 4792.97,1350.01 4962.97,1350.01 4962.97,1411.3 "/>
    </g>
   </g>
  </g>
 </g>
</svg>
