<?xml version="1.0" encoding="UTF-8"?>
<!DOCTYPE svg PUBLIC "-//W3C//DTD SVG 1.1//EN" "http://www.w3.org/Graphics/SVG/1.1/DTD/svg11.dtd">
<!-- Creator: CorelDRAW -->
<svg xmlns="http://www.w3.org/2000/svg" xml:space="preserve" width="3.93701in" height="3.93701in" version="1.1" shape-rendering="geometricPrecision" text-rendering="geometricPrecision" image-rendering="optimizeQuality" fill-rule="evenodd" clip-rule="evenodd"
viewBox="0 0 3937.01 3937.01"
 xmlns:xlink="http://www.w3.org/1999/xlink"
 xmlns:xodm="http://www.corel.com/coreldraw/odm/2003">
 <g id="Layer_x0020_1">
  <metadata id="CorelCorpID_0Corel-Layer"/>
  <g id="_1993960376528">
   <path fill="black" d="M2012.88 3306.06c-261.55,0 -548.52,-75.32 -740.13,-206.28 -38,-25.98 -28.96,-25.2 -77.77,-8.06l-485.09 154.22 154.84 -466.35c18.56,-52.72 19.22,-37.04 -25.21,-104.8 -451.07,-687.85 -195.09,-1610.12 541.87,-1982.57 620.7,-313.69 1373.63,-107.56 1756.97,459.34 286.43,423.59 327.24,981.84 57.53,1456.04 -69.93,122.95 -112.42,174.5 -199.54,268.08 -126.98,136.4 -290.63,250.1 -465.31,321.85 -153.85,63.19 -329.61,108.53 -518.17,108.53zm-1672.94 -1413.85c0,297.61 61.12,582.33 205.7,834.33 26.17,45.61 35.85,43.26 17.18,99.57 -45.91,138.43 -95.05,280.55 -141.68,420.47 -44.74,134.26 -106.58,290.56 -141.54,422.83 67.48,-15.83 328.44,-104.67 414.39,-132.22 138.48,-44.39 273.93,-87.87 412.6,-131.66 127.46,-40.26 78.89,-25.9 191.63,23.43 65.14,28.5 122.58,52.61 195.85,76.64 391.96,128.57 824.22,93.89 1194.75,-73.61 160.87,-72.72 247.52,-138.72 373.66,-235.94 49.46,-38.12 67.09,-61.85 106.07,-100.84 656.38,-656.82 639.91,-1701.82 -2.14,-2344.67 -136.47,-136.64 -319.22,-260.63 -495.13,-338.99 -515.61,-229.67 -1167.39,-179.16 -1622.85,155.36 -164.87,121.09 -287.74,237.9 -406.31,404.03 -177.12,248.17 -302.17,595.62 -302.17,921.28z"/>
   <path fill="black" d="M1170.09 1543.19c0,179.97 116.37,351.37 203.59,485.46 99.61,153.13 239.12,313.25 382.92,427.31 19.78,15.69 44.46,33.5 64.53,47.97 131.97,95.15 303.93,166.82 465.59,220.33 134.33,44.46 253.46,39.31 374.15,-24.43 109.12,-57.62 171.72,-113.22 193.28,-268.39 13.98,-100.64 -20.59,-93.24 -87.84,-132.82 -47.48,-27.94 -95.94,-51.26 -146.46,-78.41 -124.06,-66.69 -176.69,-113.21 -230.81,-40.7 -17.81,23.86 -33.73,39.36 -51.06,61.62 -10.74,13.78 -16.98,17.19 -28.61,30.07 -87.38,96.75 -71.69,115.99 -252.54,15.07 -184.48,-102.95 -355.09,-277.74 -449.99,-467.41 -20.41,-40.78 -7.94,-65.11 14.92,-87.15 52.26,-50.37 146.47,-135.48 118.03,-211.46 -42.04,-112.31 -82.52,-226.37 -125.94,-335.56 -28.87,-72.61 -79.56,-65.77 -163.07,-68.92 -77.23,-2.92 -120.35,46.8 -150.97,81.35 -94.43,106.56 -129.72,192.8 -129.72,346.04z"/>
  </g>
 </g>
</svg>
